<svg xmlns="http://www.w3.org/2000/svg" width="45" height="56" viewBox="0 0 45 56">
    <g fill="none" fill-rule="evenodd">
        <path fill="#FFF" stroke="#E0E0E0" stroke-width="1.008" d="M31.482.504H1.994c-.578 0-.982.488-.982 1.438v53.52c0 .11.51.504.982.504h40.717c.474 0 .983-.394.983-.504V13.087c0-.518-.04-.663-.112-.736L31.76.618a.397.397 0 0 0-.278-.114z"/>
        <path fill="#E0E0E0" d="M32.005.152v11.949h12.04z"/>
        <path fill="#898989" d="M12.7 13.11H6.605c-.56 0-1.016-.453-1.016-1.01 0-.556.455-1.008 1.016-1.008h6.097c.56 0 1.016.452 1.016 1.009 0 .556-.456 1.008-1.016 1.008zm2.827 5.041H6.604c-.56 0-1.016-.452-1.016-1.008 0-.557.455-1.009 1.016-1.009h8.923c.56 0 1.016.452 1.016 1.009 0 .556-.455 1.008-1.016 1.008zm22.572-.005H18.79c-.56 0-1.016-.452-1.016-1.008 0-.557.455-1.009 1.016-1.009H38.1c.56 0 1.016.452 1.016 1.009 0 .556-.455 1.008-1.016 1.008zM15.027 33.782H6.898c-.56 0-1.016-.452-1.016-1.009 0-.557.456-1.008 1.016-1.008h8.129c.56 0 1.016.451 1.016 1.008 0 .557-.455 1.009-1.016 1.009zM28.24 23.193H6.898c-.56 0-1.016-.451-1.016-1.008 0-.557.456-1.009 1.016-1.009H28.24c.56 0 1.016.452 1.016 1.009 0 .557-.455 1.008-1.016 1.008zm9.46 0h-6.096c-.56 0-1.016-.451-1.016-1.008 0-.557.455-1.009 1.016-1.009h6.097c.56 0 1.016.452 1.016 1.009 0 .557-.456 1.008-1.016 1.008zM25.643 28.24H6.898c-.56 0-1.016-.451-1.016-1.008 0-.557.456-1.008 1.016-1.008h18.744c.56 0 1.016.451 1.016 1.008 0 .557-.455 1.008-1.016 1.008zm12.46-.005h-9.145c-.56 0-1.016-.451-1.016-1.008 0-.557.455-1.009 1.016-1.009h9.145c.56 0 1.016.452 1.016 1.009 0 .557-.456 1.008-1.016 1.008z"/>
        <path fill="#27638F" d="M42.711 56.47H1.994a1.48 1.48 0 0 1-1.486-1.475V39.328h43.69v15.667a1.48 1.48 0 0 1-1.487 1.476z"/>
        <g fill="#FFF">
            <path fill-rule="nonzero" d="M17.78 48.083c0 .836-.09 1.55-.27 2.144-.181.592-.41 1.089-.688 1.489-.279.4-.59.715-.938.945-.348.23-.683.401-1.007.517-.324.115-.62.189-.89.221a5.97 5.97 0 0 1-.596.046H9.516v-10.16H12.6c.862 0 1.618.136 2.27.406.653.27 1.196.632 1.626 1.082.431.45.752.963.966 1.537.213.575.32 1.166.32 1.773zm-4.944 4.15c1.13 0 1.944-.359 2.444-1.076.5-.717.75-1.755.75-3.116 0-.422-.05-.84-.152-1.254a2.677 2.677 0 0 0-.59-1.123c-.292-.336-.688-.608-1.188-.814-.5-.207-1.149-.31-1.945-.31h-.972v7.692h1.653zM27.916 48.317c0 .855-.109 1.608-.326 2.26-.218.653-.52 1.195-.904 1.627a3.778 3.778 0 0 1-1.347.98c-.514.22-1.077.33-1.688.33-.61 0-1.173-.11-1.687-.33a3.778 3.778 0 0 1-1.347-.98c-.385-.433-.686-.974-.904-1.627-.217-.652-.326-1.406-.326-2.26 0-.854.109-1.607.326-2.254.218-.649.518-1.188.904-1.62a3.86 3.86 0 0 1 1.347-.986 4.15 4.15 0 0 1 1.687-.338c.611 0 1.174.112 1.688.338a3.86 3.86 0 0 1 1.347.986c.384.433.685.972.904 1.62.216.647.326 1.399.326 2.254zm-4.307 3.847c.342 0 .668-.067.98-.2.31-.133.588-.352.832-.654.245-.304.438-.701.576-1.193.139-.492.213-1.091.223-1.8-.01-.69-.081-1.275-.215-1.757-.135-.483-.32-.88-.556-1.193a2.137 2.137 0 0 0-.806-.676 2.253 2.253 0 0 0-.952-.206c-.342 0-.67.063-.98.192-.31.13-.588.347-.833.655-.245.308-.437.705-.576 1.193-.138.488-.213 1.084-.222 1.792.009.69.081 1.277.215 1.764.134.487.32.885.556 1.193.237.309.505.533.806.676.302.142.619.214.952.214z"/>
            <path d="M37.194 52.412c-.38.367-.81.643-1.291.827-.482.184-1 .275-1.556.275-.611 0-1.173-.11-1.687-.33a3.778 3.778 0 0 1-1.348-.98c-.384-.433-.685-.974-.903-1.627-.217-.652-.326-1.406-.326-2.26 0-.854.109-1.607.326-2.254.218-.649.518-1.188.903-1.62a3.84 3.84 0 0 1 1.355-.986 4.161 4.161 0 0 1 1.68-.338 4.33 4.33 0 0 1 1.556.276c.481.184.911.46 1.291.827l-1.153 1.02a2.104 2.104 0 0 0-.771-.579 2.25 2.25 0 0 0-.882-.18c-.342 0-.67.064-.98.193-.31.13-.588.347-.833.655-.246.308-.438.705-.576 1.193-.138.488-.213 1.084-.222 1.792.009.69.081 1.277.215 1.764.134.487.32.885.556 1.193.237.309.505.533.806.676.3.143.617.214.952.214.334 0 .646-.06.937-.18.292-.119.558-.312.8-.579l1.151 1.008z"/>
        </g>
    </g>
</svg>
