<svg xmlns="http://www.w3.org/2000/svg" width="44" height="56" viewBox="0 0 44 56">
    <g fill="none" fill-rule="evenodd">
        <path fill="#FFF" stroke="#E0E0E0" d="M31.22.5H1.978c-.574 0-.974.484-.974 1.426V55c0 .109.504.5.974.5h40.377c.47 0 .975-.391.975-.5V12.978c0-.514-.04-.658-.112-.73L31.495.613A.394.394 0 0 0 31.22.5z"/>
        <path fill="#E0E0E0" d="M31.739.151V12h11.938z"/>
        <path fill="#F33232" d="M13.616 33.324c-.35 0-.687-.113-.974-.326-1.049-.781-1.19-1.65-1.123-2.242.183-1.628 2.211-3.332 6.03-5.068 1.515-3.296 2.957-7.357 3.817-10.75-1.006-2.172-1.983-4.99-1.27-6.643.249-.579.56-1.023 1.142-1.215a4.98 4.98 0 0 1 1.023-.172c.508 0 .955.649 1.27 1.049.298.376.972 1.173-.375 6.802 1.358 2.784 3.283 5.62 5.127 7.562 1.32-.237 2.457-.358 3.383-.358 1.578 0 2.534.365 2.924 1.117.322.622.19 1.349-.393 2.16-.561.779-1.335 1.191-2.237 1.191-1.225 0-2.652-.768-4.243-2.285-2.858.593-6.196 1.651-8.894 2.822-.843 1.774-1.65 3.203-2.402 4.251-1.032 1.435-1.923 2.105-2.805 2.105zm2.683-5.126c-2.154 1.201-3.031 2.188-3.095 2.744-.01.092-.037.334.435.692.15-.047 1.026-.444 2.66-3.436zm13.74-4.442c.821.627 1.022.944 1.559.944.235 0 .907-.01 1.219-.441a1.58 1.58 0 0 0 .231-.415c-.123-.065-.288-.197-1.183-.197-.51.001-1.15.023-1.826.109zm-7.527-6.582a70.935 70.935 0 0 1-2.694 7.564 50.625 50.625 0 0 1 6.545-2.02c-1.36-1.568-2.72-3.526-3.85-5.544zm-.611-8.462c-.1.033-1.34 1.757.096 3.216.957-2.115-.053-3.23-.096-3.216zM42.355 56H1.978a1.469 1.469 0 0 1-1.474-1.463V39H43.83v15.537c0 .808-.66 1.463-1.475 1.463z"/>
        <g fill="#FFF">
            <path fill-rule="nonzero" d="M11.471 53H9.818V42.924h2.92c.431 0 .858.068 1.28.205a3.49 3.49 0 0 1 1.137.615c.335.273.607.604.813.991.207.387.31.822.31 1.306 0 .511-.087.973-.262 1.388a2.9 2.9 0 0 1-.73 1.046c-.312.282-.69.501-1.13.656-.44.155-.928.232-1.46.232H11.47V53h.001zm0-8.832v3.992h1.516c.201 0 .4-.034.6-.103.197-.068.378-.18.543-.335.165-.155.298-.371.4-.649.1-.278.15-.622.15-1.032 0-.164-.023-.354-.068-.567a1.631 1.631 0 0 0-.282-.615 1.667 1.667 0 0 0-.6-.492c-.257-.132-.597-.198-1.02-.198h-1.239v-.001zM26.418 47.682c0 .829-.09 1.538-.27 2.126-.179.588-.405 1.08-.682 1.477a3.49 3.49 0 0 1-.93.937 4.678 4.678 0 0 1-.998.513 4.151 4.151 0 0 1-.882.219c-.266.03-.463.046-.592.046H18.22V42.924h3.058c.854 0 1.605.135 2.252.403.647.268 1.185.627 1.612 1.073a4.4 4.4 0 0 1 .957 1.524c.212.57.318 1.156.318 1.758zm-4.904 4.115c1.12 0 1.928-.355 2.424-1.066.496-.711.744-1.741.744-3.09 0-.419-.05-.834-.152-1.244a2.655 2.655 0 0 0-.585-1.114c-.29-.333-.682-.602-1.178-.807-.496-.205-1.138-.308-1.928-.308h-.965v7.629h1.64z"/>
            <path d="M30.495 44.168v3.172h4.243v1.121h-4.243V53h-1.68V42.924h6.35v1.244z"/>
        </g>
    </g>
</svg>
