<svg xmlns="http://www.w3.org/2000/svg" width="44" height="44" viewBox="0 0 44 44">
    <g fill="none" fill-rule="evenodd">
        <path fill="#FFF" stroke="#E0E0E0" stroke-width=".566" d="M21.49.283H5.108c-.319 0-.543.274-.543.807v30.047c0 .062.282.283.543.283h22.62c.262 0 .543-.221.543-.283V7.347c0-.291-.022-.373-.062-.414L21.64.346a.215.215 0 0 0-.151-.063z"/>
        <path fill="#E0E0E0" d="M21.78.085v6.708h6.69z"/>
        <path fill="#D4E562" fill-rule="nonzero" d="M5 22.1h23v-5.902L22.651 11.1l-5.616 6.17-2.933-2.941z"/>
        <path fill="#1287DE" d="M27.729 31.703H5.109a.827.827 0 0 1-.827-.828v-8.796h24.272v8.796c0 .457-.37.828-.825.828z"/>
        <path fill="#FFF" fill-rule="nonzero" d="M10.393 29.573H9.5v-5.484h1.577c.233 0 .464.037.692.112.228.074.433.186.614.335.181.148.327.328.439.539.112.21.168.447.168.71 0 .279-.048.53-.142.756a1.579 1.579 0 0 1-.394.57 1.778 1.778 0 0 1-.61.356 2.348 2.348 0 0 1-.79.127h-.661v1.979zm0-4.807v2.173h.819a.973.973 0 0 0 .323-.056.816.816 0 0 0 .294-.182.891.891 0 0 0 .216-.354 1.673 1.673 0 0 0 .044-.87.891.891 0 0 0-.152-.335.902.902 0 0 0-.324-.267c-.139-.072-.322-.108-.55-.108h-.67zm7.582-.677v5.484h-.908l-2.15-3.78v3.78h-.908v-5.484h.908l2.15 3.78v-3.78h.908zm5.357 2.657v2.12a1.602 1.602 0 0 1-.383.353 2.343 2.343 0 0 1-.93.354c-.166.025-.33.037-.495.037a2.25 2.25 0 0 1-.904-.179 2.024 2.024 0 0 1-.721-.528 2.493 2.493 0 0 1-.484-.878 3.887 3.887 0 0 1-.175-1.22c0-.461.058-.867.175-1.216a2.48 2.48 0 0 1 .484-.874c.205-.234.447-.41.725-.533.278-.122.578-.182.9-.182.298 0 .576.05.834.149.258.1.488.248.691.446l-.617.55a1.062 1.062 0 0 0-.41-.312 1.225 1.225 0 0 0-.476-.097c-.183 0-.359.035-.524.104-.167.07-.316.188-.447.354a1.82 1.82 0 0 0-.308.643 3.797 3.797 0 0 0-.12.967c.005.373.044.695.116.968.072.272.17.495.298.669.126.174.27.303.431.387.161.084.331.126.51.126a2.797 2.797 0 0 0 .495-.048c.091-.018.18-.041.264-.071a.378.378 0 0 0 .186-.126v-1.354h-.93v-.61h1.815z"/>
        <g fill="#FFE90A" fill-rule="nonzero" transform="translate(8 6)">
            <ellipse cx="2.444" cy="2.437" rx="2.444" ry="2.437"/>
        </g>
    </g>
</svg>
