<?xml version="1.0" encoding="UTF-8"?>
<svg width="30px" height="30px" viewBox="0 0 30 30" version="1.1" xmlns="http://www.w3.org/2000/svg" xmlns:xlink="http://www.w3.org/1999/xlink">
    <!-- Generator: Sketch 52.4 (67378) - http://www.bohemiancoding.com/sketch -->
    <title>open</title>
    <desc>Created with Sketch.</desc>
    <g id="Page-1" stroke="none" stroke-width="1" fill="none" fill-rule="evenodd">
        <g id="SimplyConnect-organizations-list---Left-navi-collapsed" transform="translate(-42.000000, -654.000000)" fill="#898989">
            <g id="open" transform="translate(42.000000, 654.000000)">
                <g id="Group-9">
                    <path d="M30,1 L5,1 C2.790861,1 1,2.790861 1,5 L1,25 C1,27.209139 2.790861,29 5,29 L30,29 L30,30 L5,30 C2.23857625,30 3.38176876e-16,27.7614237 0,25 L0,5 C-3.38176876e-16,2.23857625 2.23857625,-1.26909153e-15 5,3.94430453e-31 L30,-1.77635684e-15 L30,1 Z" id="Path" fill-rule="nonzero"></path>
                    <path d="M11.1357572,15.3121601 C11.0479517,15.2295591 10.9997244,15.1192511 11.0000012,15.0014634 C10.9997244,14.884131 11.0479517,14.7737579 11.1357572,14.6910919 L17.9266837,8.12780384 C18.0142816,8.045398 18.1312172,8 18.2559023,8 C18.3805875,8 18.4974538,8.045398 18.5851209,8.12780384 L18.8640365,8.38985049 C18.9516343,8.47232136 19,8.58217413 19,8.69944147 C19,8.81657873 18.9516343,8.92643149 18.8640365,9.00883733 L12.680137,15.0016585 L18.8605076,20.9911627 C19.0419999,21.1616979 19.0419999,21.4392891 18.8605076,21.6100845 L18.5815921,21.8721962 C18.4939942,21.954602 18.3770586,22 18.2523735,22 C18.1276883,22 18.0107528,21.954602 17.9231549,21.8721962 L11.1357572,15.3121601 Z" id="Path"></path>
                </g>
            </g>
        </g>
    </g>
</svg>