<?xml version="1.0" encoding="UTF-8"?>
<svg width="30px" height="30px" viewBox="0 0 30 30" version="1.1" xmlns="http://www.w3.org/2000/svg" xmlns:xlink="http://www.w3.org/1999/xlink">
    <!-- Generator: Sketch 52.4 (67378) - http://www.bohemiancoding.com/sketch -->
    <title>close</title>
    <desc>Created with Sketch.</desc>
    <g id="Page-1" stroke="none" stroke-width="1" fill="none" fill-rule="evenodd">
        <g id="SimplyConnect-organizations-list---Left-navi-collapsed" transform="translate(-42.000000, -602.000000)" fill="#898989">
            <g id="close" transform="translate(42.000000, 602.000000)">
                <g id="Group-9">
                    <path d="M30,1 L5,1 C2.790861,1 1,2.790861 1,5 L1,25 C1,27.209139 2.790861,29 5,29 L30,29 L30,30 L5,30 C2.23857625,30 3.38176876e-16,27.7614237 0,25 L0,5 C-3.38176876e-16,2.23857625 2.23857625,-1.26909153e-15 5,0 L30,-1.77635684e-15 L30,1 Z" id="Path" fill-rule="nonzero"></path>
                    <path d="M19.8642428,15.3121601 L13.0768451,21.8721962 C12.9892472,21.954602 12.8723117,22 12.7476265,22 C12.6229414,22 12.5060058,21.954602 12.4184079,21.8721962 L12.1394924,21.6100845 C11.9580001,21.4392891 11.9580001,21.1616979 12.1394924,20.9911627 L18.319863,15.0016585 L12.1359635,9.00883733 C12.0483657,8.92643149 12,8.81657873 12,8.69944147 C12,8.58217413 12.0483657,8.47232136 12.1359635,8.38985049 L12.4148791,8.12780384 C12.5025462,8.045398 12.6194125,8 12.7440977,8 C12.8687828,8 12.9857184,8.045398 13.0733163,8.12780384 L19.8642428,14.6910919 C19.9520483,14.7737579 20.0002756,14.884131 19.9999988,15.0014634 C20.0002756,15.1192511 19.9520483,15.2295591 19.8642428,15.3121601 Z" id="Path"></path>
                </g>
            </g>
        </g>
    </g>
</svg>