<?xml version="1.0" encoding="UTF-8"?>
<svg width="160px" height="55px" viewBox="0 0 160 55" version="1.1" xmlns="http://www.w3.org/2000/svg" xmlns:xlink="http://www.w3.org/1999/xlink">
    <!-- Generator: Sketch 52.4 (67378) - http://www.bohemiancoding.com/sketch -->
    <desc>Created with Sketch.</desc>
    <defs>
        <polygon id="path-1" points="0.00801335559 0.0104889976 159.918309 0.0104889976 159.918309 54.9919315 0.00801335559 54.9919315"></polygon>
    </defs>
    <g id="Page-1" stroke="none" stroke-width="1" fill="none" fill-rule="evenodd">
        <g id="SimplyConnect-Dashboard-Full-release--opt4" transform="translate(-40.000000, -12.000000)">
            <g id="Group" transform="translate(40.000000, 12.000000)">
                <g id="Group-5">
                    <mask id="mask-2" fill="white">
                        <use xlink:href="#path-1"></use>
                    </mask>
                    <g id="Clip-2"></g>
                    <path d="M147.396327,6.20020782 C147.396327,9.61867971 144.64374,12.3899267 141.248748,12.3899267 C137.853756,12.3899267 135.101169,9.61867971 135.101169,6.20020782 C135.101169,2.78173594 137.853756,0.0104889976 141.248748,0.0104889976 C144.64374,0.0104889976 147.396327,2.78173594 147.396327,6.20020782" id="Fill-1" fill="#FFB602" mask="url(#mask-2)"></path>
                    <path d="M159.906511,5.98047677 C159.954591,5.78885086 159.851753,5.59130807 159.670117,5.50860636 L155.648748,3.68405868 C155.43773,3.58831296 155.18798,3.67612469 155.086477,3.88187042 C154.668447,4.73013447 153.457095,7.00974328 150.928881,10.5508557 C147.640735,15.1567359 144.447412,16.2227139 141.140568,16.2458435 C137.833723,16.2227139 134.640401,15.1567359 131.352254,10.5508557 C128.823907,7.00974328 127.612287,4.73013447 127.194257,3.88173594 C127.092888,3.67612469 126.843406,3.58817848 126.632387,3.68392421 L122.611419,5.50860636 C122.429115,5.59117359 122.326277,5.78885086 122.374357,5.9803423 C122.69409,7.25018337 124.173088,8.44081907 127.707245,15.3269804 C131.092755,21.9234841 132.943973,27.8855379 130.974157,36.1750733 C128.966811,44.6227506 125.904641,51.0986308 124.751119,54.4458313 C124.657362,54.7180073 124.86197,55 125.154324,55 L130.917663,55 C131.093155,55 131.250618,54.8947066 131.314324,54.7338753 C131.847613,53.386846 134.406678,47.247824 136.09616,43.7416748 C137.811018,40.1830807 139.201336,37.6938264 140.615693,37.1061736 C140.952254,36.9663203 141.330217,36.9663203 141.666778,37.1061736 C143.0798,37.6938264 144.470117,40.1830807 146.184975,43.7416748 C147.874457,47.247824 150.433389,53.386846 150.967613,54.7338753 C151.030384,54.8947066 151.18798,55 151.362938,55 L157.127212,55 C157.419699,55 157.62404,54.7180073 157.530551,54.4459658 C156.376628,51.0987653 153.31419,44.6227506 151.306845,36.1750733 C149.336895,27.8856724 151.18798,21.9234841 154.573623,15.3271149 C158.108848,8.44081907 159.587312,7.25018337 159.906511,5.98047677" id="Fill-3" fill="#FFB602" mask="url(#mask-2)"></path>
                    <path d="M0.337896494,32.6768582 C0.937028381,33.0480073 1.81248748,33.3572983 2.73415693,33.3572983 C4.10110184,33.3572983 4.89989983,32.6304645 4.89989983,31.5788753 C4.89989983,30.6044743 4.34684474,30.0477506 2.94904841,29.5064914 C1.25956594,28.9033741 0.215025042,28.0218949 0.215025042,26.5526284 C0.215025042,24.9288509 1.55138564,23.7224817 3.56353923,23.7224817 C4.62330551,23.7224817 5.39125209,23.9699144 5.85202003,24.2328117 L5.48353923,25.3307946 C5.14550918,25.1453545 4.45435726,24.8359291 3.51746244,24.8359291 C2.10430718,24.8359291 1.56674457,25.6866137 1.56674457,26.3979829 C1.56674457,27.3722494 2.19646077,27.8517848 3.62497496,28.4085086 C5.37589316,29.0889487 6.26684474,29.9394988 6.26684474,31.4706235 C6.26684474,33.0790709 5.08407346,34.4708802 2.64186978,34.4708802 C1.64353923,34.4708802 0.553055092,34.1770538 0,33.8057702 L0.337896494,32.6768582" id="Fill-4" fill="#3E8894" mask="url(#mask-2)"></path>
                </g>
                <polygon id="Fill-6" fill="#448993" points="9.41502504 34.3162347 10.7513856 34.3162347 10.7513856 23.8925917 9.41502504 23.8925917"></polygon>
                <path d="M23.130818,29.7384597 C23.0540234,28.2847922 22.9620033,26.5371638 22.9773623,25.2381418 L22.9311519,25.2381418 C22.5780301,26.4598411 22.1478464,27.7589976 21.6256427,29.1972005 L19.7977963,34.2543765 L18.7841068,34.2543765 L17.1098497,29.2899878 C16.6184975,27.8208557 16.2036728,26.4753056 15.9118531,25.2381418 L15.8811352,25.2381418 C15.8504174,26.5371638 15.7736227,28.2847922 15.6814691,29.8467115 L15.4050083,34.3162347 L14.130217,34.3162347 L14.8520868,23.8925917 L16.5570618,23.8925917 L18.3233389,28.9343032 C18.753389,30.2178606 19.106778,31.3623716 19.3678798,32.44489 L19.413823,32.44489 C19.6749249,31.3933007 20.0435392,30.2487897 20.5043072,28.9343032 L22.3475125,23.8925917 L24.0524875,23.8925917 L24.6975626,34.3162347 L23.3919199,34.3162347 L23.130818,29.7384597" id="Fill-7" fill="#448993"></path>
                <path d="M29.4122204,29.042555 C29.7040401,29.1198778 30.0726544,29.1508068 30.5180634,29.1508068 C32.1308848,29.1508068 33.1138564,28.3619804 33.1138564,26.9237775 C33.1138564,25.5474328 32.1461102,24.8823227 30.6716528,24.8823227 C30.0880134,24.8823227 29.6426043,24.9288509 29.4122204,24.990709 L29.4122204,29.042555 Z M28.0758598,24.0163081 C28.7210684,23.9080562 29.5658097,23.8152689 30.6409349,23.8152689 C31.961803,23.8152689 32.9295492,24.1245599 33.5439065,24.6812836 C34.112187,25.1762836 34.4500835,25.9340465 34.4500835,26.8619193 C34.4500835,27.8052567 34.1736227,28.5476895 33.651419,29.0889487 C32.9449082,29.8467115 31.7929883,30.2333252 30.4873456,30.2333252 C30.0880134,30.2333252 29.7192654,30.2178606 29.4122204,30.1406724 L29.4122204,34.3162347 L28.0758598,34.3162347 L28.0758598,24.0163081 Z" id="Fill-8" fill="#448993"></path>
                <polyline id="Fill-9" fill="#448993" points="37.5676795 23.8925917 38.9040401 23.8925917 38.9040401 33.1871883 43.3275459 33.1871883 43.3275459 34.3162347 37.5676795 34.3162347 37.5676795 23.8925917"></polyline>
                <path d="M47.1515192,34.3162347 L47.1515192,29.8931051 L43.8799332,23.8925917 L45.400601,23.8925917 L46.8595659,26.769132 C47.2590317,27.557824 47.5662104,28.1920049 47.8887479,28.9188386 L47.9194658,28.9188386 C48.2112855,28.2383985 48.5645409,27.557824 48.9638731,26.769132 L50.453823,23.8925917 L51.9743573,23.8925917 L48.5031052,29.8776406 L48.5031052,34.3162347 L47.1515192,34.3162347" id="Fill-10" fill="#448993"></path>
                <path d="M61.1589983,33.9760147 C60.667379,34.2234474 59.6844073,34.4708802 58.424975,34.4708802 C55.5065109,34.4708802 53.3101836,32.615 53.3101836,29.1972005 C53.3101836,25.9340465 55.5065109,23.7224817 58.7167947,23.7224817 C60.0069449,23.7224817 60.8209683,24.0008435 61.1743573,24.1864181 L60.8516861,25.2845355 C60.3448414,25.0369682 59.6229716,24.8515281 58.7627379,24.8515281 C56.3358932,24.8515281 54.7232053,26.4134474 54.7232053,29.1508068 C54.7232053,31.7025917 56.1824374,33.3419682 58.7013022,33.3419682 C59.5154591,33.3419682 60.3448414,33.1718582 60.882404,32.9088264 L61.1589983,33.9760147" id="Fill-11" fill="#448993"></path>
                <path d="M64.6450751,29.1662714 C64.6450751,31.3933007 65.8430718,33.3882274 67.947379,33.3882274 C70.0670451,33.3882274 71.2651753,31.4242298 71.2651753,29.0580196 C71.2651753,26.9856357 70.1899165,24.820599 67.9627379,24.820599 C65.7510518,24.820599 64.6450751,26.8773839 64.6450751,29.1662714 Z M72.678197,28.9961614 C72.678197,32.5840709 70.5124541,34.4863447 67.8707179,34.4863447 C65.1365609,34.4863447 63.2166945,32.3521027 63.2166945,29.1972005 C63.2166945,25.8876528 65.2594324,23.7224817 68.0241736,23.7224817 C70.8503506,23.7224817 72.678197,25.9031174 72.678197,28.9961614 Z" id="Fill-12" fill="#448993"></path>
                <path d="M75.7340902,34.3162347 L75.7340902,23.8925917 L77.1931886,23.8925917 L80.5108514,29.1662714 C81.2789316,30.3879707 81.8779299,31.486088 82.3694157,32.5531418 L82.4001336,32.5376773 C82.2772621,31.145868 82.2465442,29.8776406 82.2465442,28.2538631 L82.2465442,23.8925917 L83.5061102,23.8925917 L83.5061102,34.3162347 L82.1543907,34.3162347 L78.8674457,29.0270905 C78.1454424,27.8671149 77.4542905,26.6763447 76.9320868,25.5474328 L76.8861436,25.5628973 C76.9628047,26.8773839 76.9935225,28.1301467 76.9935225,29.862176 L76.9935225,34.3162347 L75.7340902,34.3162347" id="Fill-13" fill="#448993"></path>
                <path d="M87.1608681,34.3162347 L87.1608681,23.8925917 L88.6201002,23.8925917 L91.9377629,29.1662714 C92.7058431,30.3879707 93.3047078,31.486088 93.7963272,32.5531418 L93.8269115,32.5376773 C93.7040401,31.145868 93.6734558,29.8776406 93.6734558,28.2538631 L93.6734558,23.8925917 L94.9330217,23.8925917 L94.9330217,34.3162347 L93.5811686,34.3162347 L90.2942237,29.0270905 C89.5723539,27.8671149 88.881202,26.6763447 88.3589983,25.5474328 L88.3129215,25.5628973 C88.3895826,26.8773839 88.4204341,28.1301467 88.4204341,29.862176 L88.4204341,34.3162347 L87.1608681,34.3162347" id="Fill-14" fill="#448993"></path>
                <polyline id="Fill-15" fill="#448993" points="103.948314 29.4291687 99.9242738 29.4291687 99.9242738 33.1871883 104.409215 33.1871883 104.409215 34.3162347 98.5879132 34.3162347 98.5879132 23.8925917 104.178831 23.8925917 104.178831 25.0216381 99.9242738 25.0216381 99.9242738 28.3157213 103.948314 28.3157213 103.948314 29.4291687"></polyline>
                <path d="M114.699566,33.9760147 C114.20808,34.2234474 113.224975,34.4708802 111.965676,34.4708802 C109.047212,34.4708802 106.850885,32.615 106.850885,29.1972005 C106.850885,25.9340465 109.047212,23.7224817 112.257362,23.7224817 C113.547646,23.7224817 114.361669,24.0008435 114.715058,24.1864181 L114.392387,25.2845355 C113.885543,25.0369682 113.163673,24.8515281 112.303439,24.8515281 C109.876594,24.8515281 108.263907,26.4134474 108.263907,29.1508068 C108.263907,31.7025917 109.723139,33.3419682 112.242003,33.3419682 C113.05616,33.3419682 113.885543,33.1718582 114.423105,32.9088264 L114.699566,33.9760147" id="Fill-16" fill="#448993"></path>
                <polyline id="Fill-17" fill="#448993" points="120.090017 25.0369682 116.941302 25.0369682 116.941302 23.8925917 124.605676 23.8925917 124.605676 25.0369682 121.441736 25.0369682 121.441736 34.3162347 120.090017 34.3162347 120.090017 25.0369682"></polyline>
                <path d="M125.78818,33.5119438 C125.78818,32.9397555 126.172154,32.5376773 126.709716,32.5376773 C127.247412,32.5376773 127.615893,32.9397555 127.615893,33.5119438 C127.615893,34.068802 127.262638,34.4863447 126.694357,34.4863447 C126.156795,34.4863447 125.78818,34.068802 125.78818,33.5119438" id="Fill-18" fill="#448993"></path>
                <path d="M141.192654,29.7384597 C141.116528,28.2847922 141.024374,26.5371638 141.039065,25.2381418 L140.993656,25.2381418 C140.639733,26.4598411 140.209683,27.7589976 139.687479,29.1972005 L137.860434,34.2543765 L136.846745,34.2543765 L135.171953,29.2899878 C134.680467,27.8208557 134.266444,26.4753056 133.973957,25.2381418 L133.943239,25.2381418 C133.912521,26.5371638 133.836394,28.2847922 133.74424,29.8467115 L133.467379,34.3162347 L132.192454,34.3162347 L132.914324,23.8925917 L134.619032,23.8925917 L136.385977,28.9343032 C136.816027,30.2178606 137.168614,31.3623716 137.430384,32.44489 L137.475793,32.44489 C137.737563,31.3933007 138.106177,30.2487897 138.566945,28.9343032 L140.410017,23.8925917 L142.11419,23.8925917 L142.760601,34.3162347 L141.454424,34.3162347 L141.192654,29.7384597" id="Fill-19" fill="#FFFFFF"></path>
                <polyline id="Fill-20" fill="#FFFFFF" points="149.793656 29.4291687 145.769616 29.4291687 145.769616 33.1871883 150.254424 33.1871883 150.254424 34.3162347 144.432721 34.3162347 144.432721 23.8925917 150.024708 23.8925917 150.024708 25.0216381 145.769616 25.0216381 145.769616 28.3157213 149.793656 28.3157213 149.793656 29.4291687"></polyline>
            </g>
        </g>
    </g>
</svg>