<svg xmlns="http://www.w3.org/2000/svg" width="45" height="56" viewBox="0 0 45 56">
    <g fill="none" fill-rule="evenodd">
        <path fill="#FFF" stroke="#E0E0E0" stroke-width="1.008" d="M31.482.504H1.994c-.578 0-.982.488-.982 1.438v53.52c0 .11.51.504.982.504h40.717c.474 0 .983-.394.983-.504V13.087c0-.518-.04-.663-.112-.736L31.76.618a.397.397 0 0 0-.278-.114z"/>
        <path fill="#E0E0E0" d="M32.005.152v11.949h12.04z"/>
        <path fill="#70BE71" d="M42.711 56.47H1.994a1.48 1.48 0 0 1-1.486-1.475V39.328h43.69v15.667a1.48 1.48 0 0 1-1.487 1.476z"/>
        <path fill="#FFF" d="M12.334 53h-1.641v-4.508h-4.61V53H4.447V43h1.634v4.09h4.61V43h1.642v10zm5.687 0h-1.634v-8.598h-2.941V43h7.517v1.402H18.02V53zm8.396 0l-2.9-8.352h-.054c.077 1.24.116 2.404.116 3.489V53h-1.484V43H24.4l2.777 7.955h.04L30.078 43h2.312v10h-1.574v-4.945c0-.497.013-1.145.038-1.943s.047-1.281.065-1.45h-.055L27.861 53h-1.444zm8.205 0V43h1.635v8.598h4.233V53h-5.868z"/>
        <path fill="#56B157" d="M32.6 23.193l-5.377-5.337a1.002 1.002 0 0 1 0-1.426 1.02 1.02 0 0 1 1.437 0l6.096 6.05a1.002 1.002 0 0 1 0 1.426l-6.096 6.05a1.017 1.017 0 0 1-1.437 0 1.002 1.002 0 0 1 0-1.425l5.378-5.338zm-23.666.713a1.002 1.002 0 0 1 0-1.426l6.096-6.05a1.02 1.02 0 0 1 1.437 0 1.002 1.002 0 0 1 0 1.426l-5.378 5.337 5.378 5.338a1.002 1.002 0 0 1 0 1.426 1.017 1.017 0 0 1-1.437 0l-6.096-6.05zm9.863 8.363c-.112 0-.227-.02-.339-.059a1.006 1.006 0 0 1-.62-1.286l6.097-17.143a1.017 1.017 0 0 1 1.296-.615c.53.185.807.761.62 1.286l-6.096 17.143c-.147.416-.54.674-.958.674z"/>
    </g>
</svg>
